<svg width="132" height="22" viewBox="0 0 132 22" fill="none" xmlns="http://www.w3.org/2000/svg">
<path d="M0.421875 21.5V0.362305H5.53418L11.54 15.5527H11.6279L17.6338 0.362305H22.7461V21.5H18.8057V7.20312H16.7549L21.1787 0.948242L12.9756 21.5H10.1924L1.98926 0.948242L6.41309 7.20312H4.3623V21.5H0.421875ZM26.2617 21.5V0.362305H40.2656V4.00977H30.6855V9.07812H39.7236V12.5352H30.6855V17.8525H40.2656V21.5H26.2617ZM43.459 21.5V0.362305H51.5303C53.6494 0.362305 55.4561 0.767578 56.9502 1.57812C58.4541 2.38867 59.6064 3.5752 60.4072 5.1377C61.208 6.69043 61.6084 8.58496 61.6084 10.8213V10.8506C61.6084 13.0869 61.208 15.001 60.4072 16.5928C59.6162 18.1846 58.4688 19.4004 56.9648 20.2402C55.4609 21.0801 53.6494 21.5 51.5303 21.5H43.459ZM47.8828 17.8379H51.0029C52.3213 17.8379 53.4346 17.5742 54.3428 17.0469C55.251 16.5195 55.9346 15.7383 56.3936 14.7031C56.8623 13.668 57.0967 12.3887 57.0967 10.8652V10.8359C57.0967 9.36133 56.8574 8.11621 56.3789 7.10059C55.9102 6.08496 55.2217 5.31836 54.3135 4.80078C53.4053 4.27344 52.3018 4.00977 51.0029 4.00977H47.8828V17.8379ZM64.4648 21.5V0.362305H68.8887V21.5H64.4648ZM72.4043 21.5V0.362305H76.2715L87.7705 16.9004L84.0645 14.1025H85.9102V0.362305H90.3193V21.5H86.4814L74.9678 4.85938L78.6738 7.65723H76.8135V21.5H72.4043ZM93.8496 21.5V0.362305H107.854V4.00977H98.2734V9.07812H107.312V12.5352H98.2734V17.8525H107.854V21.5H93.8496ZM116.101 21.5V4.00977H109.992V0.362305H126.647V4.00977H120.524V21.5H116.101Z" fill="black"/>
<circle cx="129.5" cy="19" r="2.5" fill="#003866"/>
</svg>
